<svg xmlns="http://www.w3.org/2000/svg" viewBox="0 0 1200 400" width="1200" height="400">
  <defs>
    <linearGradient id="bg" x1="0%" y1="0%" x2="100%" y2="100%">
      <stop offset="0%" stop-color="#0b0d11"/>
      <stop offset="100%" stop-color="#151821"/>
    </linearGradient>
    <linearGradient id="accent" x1="0%" y1="0%" x2="100%" y2="0%">
      <stop offset="0%" stop-color="#4cc38a"/>
      <stop offset="100%" stop-color="#7aa2f7"/>
    </linearGradient>
  </defs>
  <rect width="1200" height="400" fill="url(#bg)"/>
  <g fill="none" stroke="#272a30" stroke-width="1">
    <line x1="0" y1="100" x2="1200" y2="100"/>
    <line x1="0" y1="300" x2="1200" y2="300"/>
    <line x1="200" y1="0" x2="200" y2="400"/>
    <line x1="400" y1="0" x2="400" y2="400"/>
    <line x1="600" y1="0" x2="600" y2="400"/>
    <line x1="800" y1="0" x2="800" y2="400"/>
    <line x1="1000" y1="0" x2="1000" y2="400"/>
  </g>
  <text x="600" y="170" text-anchor="middle" font-family="system-ui, -apple-system, BlinkMacSystemFont, 'Segoe UI', Roboto, sans-serif" font-size="72" font-weight="800" fill="url(#accent)">BORG</text>
  <text x="600" y="225" text-anchor="middle" font-family="system-ui, -apple-system, BlinkMacSystemFont, 'Segoe UI', Roboto, sans-serif" font-size="28" fill="#e2e4e9">Autonomous Market Analysis Agent</text>
  <text x="600" y="265" text-anchor="middle" font-family="ui-monospace, SFMono-Regular, Menlo, Monaco, Consolas, monospace" font-size="18" fill="#8b92a8">Observe → Orient → Decide → Act</text>
  <circle cx="180" cy="320" r="6" fill="#4cc38a"/>
  <circle cx="220" cy="320" r="6" fill="#4cc38a"/>
  <circle cx="260" cy="320" r="6" fill="#f2c94c"/>
  <circle cx="300" cy="320" r="6" fill="#eb5757"/>
  <text x="330" y="327" font-family="ui-monospace, SFMono-Regular, Menlo, Monaco, Consolas, monospace" font-size="14" fill="#8b92a8">OODA loop running</text>
  <circle cx="980" cy="320" r="6" fill="#7aa2f7"/>
  <text x="1000" y="327" font-family="ui-monospace, SFMono-Regular, Menlo, Monaco, Consolas, monospace" font-size="14" fill="#8b92a8">FastAPI + Python</text>
</svg>
